<svg xmlns="http://www.w3.org/2000/svg" viewBox="0 0 500 500" style="enable-background:new 0 0 500 500" xml:space="preserve"><path style="fill:#f0f0f0" d="M164.189 383.563h-3.853a1.186 1.186 0 0 1-1.186-1.186V292.01h6.225v90.367c0 .655-.531 1.186-1.186 1.186z"/><path style="fill:#e6e6e6" d="M297.897 283.87h53.957v8.14h-53.957zM202.756 383.563h-3.853a1.186 1.186 0 0 1-1.186-1.186V292.01h6.225v90.367a1.187 1.187 0 0 1-1.186 1.186zM347.069 383.563h-3.853a1.186 1.186 0 0 1-1.186-1.186V292.01h6.225v90.367c0 .655-.531 1.186-1.186 1.186z"/><path style="fill:#f5f5f5" d="M155.552 283.87h157.735v8.14H155.552z"/><path style="fill:#f0f0f0" d="M308.503 383.563h-3.853a1.186 1.186 0 0 1-1.186-1.186V292.01h6.225v90.367a1.187 1.187 0 0 1-1.186 1.186z"/><path transform="rotate(-180 407.585 299.665)" style="fill:#ebebeb" d="M406.267 217.026h2.637v165.277h-2.637z"/><path style="fill:#f0f0f0" d="M437.184 199.923c0 8.436-5.988 15.793-14.874 19.716h-29.45c-8.885-3.923-14.874-11.28-14.874-19.716s5.988-15.793 14.874-19.716h29.451c8.885 3.922 14.873 11.28 14.873 19.716z"/><path style="fill:#e0e0e0" d="M393.239 218.991c-7.609-3.575-14.502-10.077-14.502-19.069 0-8.973 6.9-15.497 14.502-19.069.873-.41.112-1.704-.757-1.295-8.085 3.798-15.245 10.868-15.245 20.364 0 9.5 7.158 16.564 15.245 20.364.868.409 1.631-.884.757-1.295z"/><path style="fill:#e0e0e0" d="M399.693 179.676c-10.435 9.965-10.436 30.527 0 40.493.698.667 1.76-.392 1.061-1.061-9.846-9.403-9.849-28.967 0-38.372.699-.667-.363-1.727-1.061-1.06zM406.835 180.206v39.432c0 .965 1.5.967 1.5 0v-39.432c0-.965-1.5-.966-1.5 0zM414.418 180.737c9.846 9.403 9.849 28.967 0 38.372-.7.668.362 1.728 1.061 1.061 10.435-9.965 10.436-30.527 0-40.493-.699-.668-1.761.391-1.061 1.06z"/><path style="fill:#e0e0e0" d="M421.932 180.854c7.609 3.575 14.502 10.077 14.502 19.069 0 8.973-6.9 15.497-14.502 19.069-.873.41-.112 1.704.757 1.295 8.085-3.798 15.245-10.868 15.245-20.364 0-9.5-7.158-16.564-15.245-20.364-.868-.408-1.631.884-.757 1.295z"/><path style="fill:#ebebeb" d="M389.036 383.563h37.1a4.53 4.53 0 0 0-4.529-4.529h-28.042a4.529 4.529 0 0 0-4.529 4.529zM114.183 310.098c.084.121-.546.804 1.68.746 5.484-.142 15.13-1.16 18.427-6.376 4.708-7.447-7.206-5.993-6.306-9.986.9-3.993 13.962-1.658 16.094-7.416 2.133-5.757-7.138-4.039-6.898-6.944.24-2.905 10.294.163 13.127-5.982 2.833-6.145-5.518-2.399-4.295-4.948 1.222-2.549 11.408-13.504 6.851-15.488-4.557-1.984-14.057 9.377-17.349 10.745-3.292 1.368-4.774-9.049-8.967-5.248-4.193 3.801-.226 19.41-5.259 21.719-3.749 1.72-2.03-4.085-6.763-3.549-6.429.729-7.062 23.031-.342 32.727z"/><path style="fill:#e0e0e0" d="M134.806 279.861c-2.14-.085-3.757.152-4.771.379 2.242-2.544 3.783-3.8 3.838-3.843a.402.402 0 0 0-.498-.631c-.043.034-3.592 2.885-7.824 8.799-.427-10.412 4.951-18.8 5.007-18.886a.302.302 0 0 0-.505-.33c-.059.09-5.8 9.041-5.06 20.004a66.592 66.592 0 0 0-2.072 3.174c-2.015 3.288-4.225 7.549-6.202 12.77-.705-1.755-2.243-6.41-1.668-12.571a.3.3 0 0 0-.272-.328.304.304 0 0 0-.328.272c-.665 7.13 1.454 12.325 1.957 13.439-2.659 7.254-4.838 16.318-5.434 27.239a.403.403 0 0 0 .429.424.402.402 0 0 0 .373-.379c.79-14.461 4.364-25.72 8.413-34.079.861-.777 3.364-2.737 6.817-2.842.158-.018.297-.145.291-.312a.3.3 0 0 0-.311-.291c-2.731.092-4.866 1.238-6.164 2.165 2.941-5.791 6.061-10.085 8.516-12.984.703-.217 2.608-.699 5.445-.585a.306.306 0 0 0 .313-.29.303.303 0 0 0-.29-.314z"/><path style="fill:#e6e6e6" d="M99.252 313.779c-6.188.117-16.759-5.63-20.909-11.221-4.211-5.674 7.635-2.154 6.418-6.609-1.216-4.455-15.821-1.163-18.516-7.544-2.695-6.382 7.842-4.915 7.424-8.176-.418-3.262-11.335-2.599-14.839-9.382-3.504-6.783 6.098-2.983 4.591-5.795-1.507-2.811-13.543-14.644-8.506-17.111 5.037-2.467 16.319 9.858 20.1 11.233 3.78 1.376 4.664-7.137 9.582-3.065 4.919 4.072 1.237 21.867 7.027 24.215 4.313 1.749 2.478-6.399 7.443-4.343 8.691 3.599 2.698 37.75.185 37.798z"/><g style="opacity:.3"><path style="fill:#e6e6e6" d="M99.252 313.779c-6.188.117-16.759-5.63-20.909-11.221-4.211-5.674 7.635-2.154 6.418-6.609-1.216-4.455-15.821-1.163-18.516-7.544-2.695-6.382 7.842-4.915 7.424-8.176-.418-3.262-11.335-2.599-14.839-9.382-3.504-6.783 6.098-2.983 4.591-5.795-1.507-2.811-13.543-14.644-8.506-17.111 5.037-2.467 16.319 9.858 20.1 11.233 3.78 1.376 4.664-7.137 9.582-3.065 4.919 4.072 1.237 21.867 7.027 24.215 4.313 1.749 2.478-6.399 7.443-4.343 8.691 3.599 2.698 37.75.185 37.798z"/></g><path style="fill:#f5f5f5" d="M97.208 306.351a.397.397 0 0 0 .219-.181c.145-.275 3.536-6.837 2.776-16.591a.414.414 0 1 0-.825.065c.642 8.235-1.816 14.263-2.505 15.768-2.771-7.521-6.091-14.211-9.424-19.937 1.095-13.289-5.715-24.171-5.784-24.279a.413.413 0 1 0-.698.444c.066.103 6.32 10.108 5.737 22.554-7.932-13.286-15.674-21.004-15.829-21.156a.551.551 0 0 0-.772.789c.13.127 5.635 5.627 12.079 15.272-3.776-1.404-7.872-2.134-11.7-2.061a.414.414 0 0 0 .008.828h.008c4.099-.073 8.51.784 12.48 2.43a131.584 131.584 0 0 1 6.734 11.581c-2.127-1.438-6.26-3.43-11.545-2.033a.414.414 0 1 0 .211.799c6.704-1.768 11.43 2.238 12.203 2.951 6.068 12.22 11.303 27.67 11.996 45.373a.55.55 0 0 0 .551.53h.022a.553.553 0 0 0 .53-.573c-.473-11.979-3.01-22.93-6.472-32.573z"/><path style="fill:#e6e6e6" d="M117.653 383.563c4.795-13.663 7.946-33.405 7.946-42.058 0-7.314-2.263-13.878-5.855-18.474H95.187c-3.592 4.596-5.855 11.16-5.855 18.474 0 8.653 3.15 28.395 7.945 42.058h20.376z"/><path style="fill:#f5f5f5" d="M105.284 310.734c.078.07-.245.648 1.288.238 3.776-1.011 10.29-3.322 11.706-7.485 2.023-5.944-5.99-2.953-6.031-5.869-.041-2.916 9.397-3.473 9.917-7.817.519-4.344-5.618-1.611-5.935-3.663-.317-2.052 7.159-1.6 8.099-6.329s-4.222-.744-3.799-2.713c.423-1.969 5.657-11.255 2.169-11.871-3.488-.616-8.179 8.836-10.232 10.332-2.053 1.496-4.814-5.475-7.087-2.144-2.273 3.331 3.074 13.486-.029 15.923-2.311 1.816-2.087-2.493-5.276-1.333-4.334 1.574-1.061 17.131 5.21 22.731z"/><path style="fill:#e0e0e0" d="M114.54 286.351c-1.497.297-2.578.731-3.243 1.057 1.13-2.136 1.989-3.262 2.02-3.302a.286.286 0 0 0-.451-.354c-.024.031-2.009 2.597-3.957 7.398-2.029-7.143.301-13.85.326-13.919a.216.216 0 0 0-.13-.275.213.213 0 0 0-.274.13c-.026.072-2.514 7.23-.177 14.702-.308.793-.613 1.64-.907 2.544-.849 2.613-1.671 5.934-2.172 9.88-.781-1.098-2.621-4.068-3.248-8.433a.215.215 0 0 0-.243-.182.216.216 0 0 0-.182.243c.726 5.051 3.059 8.297 3.593 8.986-.635 5.468-.636 12.111.769 19.778a.286.286 0 0 0 .564-.103c-1.859-10.151-1.257-18.547.157-25.013.467-.682 1.875-2.456 4.25-3.104.107-.039.182-.15.15-.264a.214.214 0 0 0-.264-.15c-1.877.518-3.165 1.667-3.911 2.526 1.074-4.502 2.521-7.996 3.74-10.413.451-.268 1.691-.918 3.675-1.311a.22.22 0 0 0 .169-.253.218.218 0 0 0-.254-.168z"/><path style="fill:#f5f5f5" d="M172.324 297.251h64.866v86.312h-64.866z"/><path style="fill:#e6e6e6" d="M237.19 297.251h12.374v86.312H237.19z"/><path style="fill:#fafafa" d="M176.867 303.655h56.112v20.961h-56.112z"/><path style="fill:#ebebeb" d="m197.607 303.655.245 2.794a1.785 1.785 0 0 0 1.778 1.629h10.588c.925 0 1.697-.707 1.778-1.629l.245-2.794h-14.634z"/><path style="fill:#fafafa" d="M176.867 326.906h56.112v20.961h-56.112z"/><path style="fill:#ebebeb" d="m197.607 326.905.245 2.794a1.785 1.785 0 0 0 1.778 1.629h10.588c.925 0 1.697-.707 1.778-1.629l.245-2.794h-14.634z"/><path style="fill:#fafafa" d="M176.867 350.156h56.112v20.961h-56.112z"/><path style="fill:#ebebeb" d="m197.607 350.156.245 2.794a1.785 1.785 0 0 0 1.778 1.629h10.588c.925 0 1.697-.707 1.778-1.629l.245-2.794h-14.634z"/><ellipse style="fill:#f5f5f5" cx="245.178" cy="412.391" rx="193.889" ry="11.323"/><path style="fill:#407bff" d="M380.673 281.526H124.101a3.88 3.88 0 0 1-3.88-3.88V90.344a3.88 3.88 0 0 1 3.88-3.88h256.573a3.879 3.879 0 0 1 3.879 3.88v187.302a3.88 3.88 0 0 1-3.88 3.88z"/><path style="opacity:.6;fill:#fff" d="M380.673 281.526H124.101a3.88 3.88 0 0 1-3.88-3.88V90.344a3.88 3.88 0 0 1 3.88-3.88h256.573a3.879 3.879 0 0 1 3.879 3.88v187.302a3.88 3.88 0 0 1-3.88 3.88z"/><path style="opacity:.3;fill:#fff" d="M171.728 86.464h-46.561a4.945 4.945 0 0 0-4.946 4.946v185.17a4.945 4.945 0 0 0 4.946 4.946h46.561V86.464z"/><path style="fill:#263238" d="M379.607 86.464h-254.44a4.945 4.945 0 0 0-4.946 4.946v12.903h264.332V91.41a4.946 4.946 0 0 0-4.946-4.946z"/><path style="fill:#fff" d="M128.857 92.795a.864.864 0 0 1 0-1.728h6.813a.864.864 0 0 1 0 1.728h-6.813zM128.857 96.253a.864.864 0 0 1 0-1.728h6.813a.864.864 0 0 1 0 1.728h-6.813zM128.857 99.71a.864.864 0 0 1 0-1.728h6.813a.864.864 0 0 1 0 1.728h-6.813z"/><path style="opacity:.7;fill:#fff" d="M180.828 117.979v57.353c0 1.211.981 2.192 2.192 2.192h17.897c1.21 0 2.192-.981 2.192-2.192v-57.353c0-1.21-.981-2.192-2.192-2.192H183.02c-1.21 0-2.192.981-2.192 2.192z"/><path style="opacity:.4;fill:#fff" d="M208.679 117.979v57.353c0 1.211.981 2.192 2.192 2.192h17.897a2.191 2.191 0 0 0 2.192-2.192v-57.353c0-1.21-.981-2.192-2.192-2.192h-17.897c-1.21 0-2.192.981-2.192 2.192z"/><path style="opacity:.7;fill:#fff" d="M236.53 117.979v57.353c0 1.211.981 2.192 2.192 2.192h17.897a2.191 2.191 0 0 0 2.192-2.192v-57.353c0-1.21-.981-2.192-2.192-2.192h-17.897c-1.21 0-2.192.981-2.192 2.192z"/><path style="opacity:.4;fill:#fff" d="M264.381 117.979v57.353c0 1.211.981 2.192 2.192 2.192h17.897a2.191 2.191 0 0 0 2.192-2.192v-57.353c0-1.21-.981-2.192-2.192-2.192h-17.897c-1.21 0-2.192.981-2.192 2.192z"/><path style="opacity:.7;fill:#fff" d="M292.232 117.979v57.353c0 1.211.981 2.192 2.192 2.192h17.897a2.191 2.191 0 0 0 2.192-2.192v-57.353c0-1.21-.981-2.192-2.192-2.192h-17.897c-1.21 0-2.192.981-2.192 2.192z"/><path style="opacity:.4;fill:#fff" d="M320.083 117.979v57.353c0 1.211.981 2.192 2.192 2.192h17.897c1.21 0 2.192-.981 2.192-2.192v-57.353c0-1.21-.981-2.192-2.192-2.192h-17.897c-1.21 0-2.192.981-2.192 2.192z"/><path style="opacity:.7;fill:#fff" d="M347.934 117.979v57.353c0 1.211.981 2.192 2.192 2.192h17.897a2.191 2.191 0 0 0 2.192-2.192v-57.353c0-1.21-.981-2.192-2.192-2.192h-17.897a2.191 2.191 0 0 0-2.192 2.192z"/><path d="M238.938 215.378h-.794v1.023h-1.101v-1.023h-2.624v-.759l2.298-3.091h1.183l-2.13 2.931h1.309v-.912h1.066v.912h.794v.919zM242.45 213.769c.327.274.491.641.491 1.1 0 .298-.074.568-.223.811a1.56 1.56 0 0 1-.678.585c-.304.146-.679.219-1.125.219-.344 0-.681-.045-1.013-.136a2.58 2.58 0 0 1-.846-.387l.446-.863c.185.139.399.247.641.324.241.077.489.115.744.115.283 0 .506-.055.669-.167a.535.535 0 0 0 .244-.467.522.522 0 0 0-.255-.473c-.169-.107-.462-.161-.88-.161h-1.247l.251-2.743h2.973v.905h-2.033l-.077.926h.397c.687.001 1.194.138 1.521.412zM243.585 213.793c-.225-.243-.337-.57-.337-.978 0-.408.113-.735.337-.979.225-.243.517-.365.874-.365s.647.122.87.365c.223.244.334.57.334.979 0 .408-.112.734-.334.978-.223.244-.513.366-.87.366s-.649-.121-.874-.366zm1.247-.4c.09-.13.136-.323.136-.578 0-.255-.045-.448-.136-.578a.431.431 0 0 0-.373-.195.432.432 0 0 0-.369.199c-.093.133-.139.324-.139.575 0 .25.046.442.139.575a.431.431 0 0 0 .369.198.434.434 0 0 0 .373-.196zm2.53-1.866h.829l-3.328 4.874h-.829l3.328-4.874zm-.219 4.767a1.104 1.104 0 0 1-.428-.47 1.569 1.569 0 0 1-.153-.71c0-.27.051-.506.153-.71a1.11 1.11 0 0 1 .428-.47c.183-.109.391-.164.623-.164.357 0 .649.122.874.365.225.244.337.57.337.979 0 .408-.113.734-.337.978-.225.244-.517.365-.874.365-.232 0-.44-.055-.623-.163zm.996-.606c.091-.133.136-.324.136-.575 0-.251-.045-.442-.136-.575a.429.429 0 0 0-.372-.199.433.433 0 0 0-.369.195c-.093.13-.139.323-.139.578 0 .255.047.448.139.578.093.13.216.195.369.195a.426.426 0 0 0 .372-.197zM314.506 213.533a1.434 1.434 0 0 1 .828 1.329c0 .325-.081.611-.243.857a1.592 1.592 0 0 1-.666.567c-.28.133-.593.199-.936.199-.682 0-1.216-.209-1.601-.626-.385-.418-.578-1.015-.578-1.79 0-.552.105-1.026.314-1.421.208-.394.499-.693.873-.898.374-.204.807-.307 1.299-.307.26 0 .509.029.75.087.239.059.442.141.609.247l-.418.829c-.242-.162-.545-.243-.911-.243-.413 0-.741.121-.982.362-.242.242-.371.592-.39 1.051.288-.288.69-.431 1.204-.431.309 0 .593.063.848.188zm-.49 1.914a.66.66 0 0 0 .225-.529c0-.223-.075-.4-.225-.533-.152-.133-.352-.199-.603-.199a.89.89 0 0 0-.606.205.665.665 0 0 0-.236.526c0 .214.077.387.23.522.153.135.361.202.626.202.241.001.437-.063.589-.194zM318.938 213.769c.327.274.492.641.492 1.1 0 .298-.075.568-.223.811a1.556 1.556 0 0 1-.679.585c-.305.146-.68.219-1.125.219-.344 0-.681-.045-1.012-.136a2.594 2.594 0 0 1-.847-.387l.446-.863c.186.139.4.247.641.324.24.077.489.115.745.115.283 0 .505-.055.669-.167a.535.535 0 0 0 .244-.467.522.522 0 0 0-.255-.473c-.169-.107-.462-.161-.88-.161h-1.246l.25-2.743h2.973v.905h-2.033l-.076.926h.397c.684.001 1.192.138 1.519.412zM320.073 213.793c-.225-.243-.337-.57-.337-.978 0-.408.112-.735.337-.979.225-.243.517-.365.874-.365s.647.122.87.365c.223.244.334.57.334.979 0 .408-.111.734-.334.978-.223.244-.513.366-.87.366s-.649-.121-.874-.366zm1.246-.4c.091-.13.136-.323.136-.578 0-.255-.045-.448-.136-.578a.43.43 0 0 0-.372-.195.435.435 0 0 0-.37.199c-.092.133-.138.324-.138.575 0 .25.046.442.138.575a.433.433 0 0 0 .37.198.433.433 0 0 0 .372-.196zm2.531-1.866h.828l-3.328 4.874h-.828l3.328-4.874zm-.219 4.767a1.104 1.104 0 0 1-.428-.47 1.569 1.569 0 0 1-.153-.71c0-.27.051-.506.153-.71.102-.204.244-.361.428-.47.183-.109.391-.164.622-.164.357 0 .649.122.874.365.225.244.337.57.337.979 0 .408-.112.734-.337.978-.225.244-.517.365-.874.365-.231 0-.439-.055-.622-.163zm.995-.606c.091-.133.136-.324.136-.575 0-.251-.045-.442-.136-.575a.427.427 0 0 0-.372-.199.43.43 0 0 0-.368.195c-.093.13-.139.323-.139.578 0 .255.046.448.139.578a.43.43 0 0 0 .368.195.423.423 0 0 0 .372-.197z"/><path style="fill:#fff" d="M329.368 97.967c-.279.271-.68.44-1.205.504v.78h-.697v-.759a3.817 3.817 0 0 1-.982-.181 2.466 2.466 0 0 1-.752-.376l.383-.849c.177.13.384.239.62.327.237.088.481.144.731.167v-1.163a5.202 5.202 0 0 1-.835-.265 1.48 1.48 0 0 1-.571-.428c-.153-.188-.23-.438-.23-.748 0-.385.14-.716.421-.992.281-.276.686-.445 1.215-.505v-.773h.697v.759c.571.046 1.042.188 1.413.425l-.348.857a2.748 2.748 0 0 0-1.065-.362v1.183c.325.075.6.159.825.255.225.095.415.236.568.424.153.188.23.435.23.741-.001.381-.14.707-.418.979zm-2.284-2.761c.088.074.216.137.383.188v-.989c-.176.042-.306.108-.39.198a.455.455 0 0 0-.125.317c0 .117.043.212.132.286zm1.455 2.165a.409.409 0 0 0 .125-.299.359.359 0 0 0-.129-.285 1.145 1.145 0 0 0-.372-.195v.961a.766.766 0 0 0 .376-.182zM332.062 93.542v4.874h-1.128v-3.969h-.975v-.905h2.103zM336.553 97.497v.919h-3.683v-.731l1.88-1.776c.2-.19.334-.354.404-.491a.888.888 0 0 0 .104-.407c0-.195-.066-.345-.198-.449-.133-.105-.326-.156-.581-.156-.214 0-.406.04-.578.121a1.12 1.12 0 0 0-.431.365l-.822-.529c.19-.283.453-.504.787-.665.334-.16.717-.24 1.149-.24.362 0 .679.059.95.178.272.118.483.285.634.501.151.216.227.47.227.763 0 .265-.056.513-.167.745-.111.232-.327.497-.647.794l-1.121 1.058h2.093zM337.249 98.276a.659.659 0 0 1-.195-.487c0-.199.065-.36.195-.484a.672.672 0 0 1 .48-.184c.19 0 .35.062.481.184.13.123.195.285.195.484a.659.659 0 0 1-.195.487.653.653 0 0 1-.481.195.652.652 0 0 1-.48-.195zM339.832 98.2a1.994 1.994 0 0 1-.741-.867c-.179-.379-.268-.83-.268-1.355 0-.524.09-.976.268-1.354.179-.379.426-.667.741-.867a1.98 1.98 0 0 1 1.079-.299c.403 0 .763.1 1.079.299.316.2.563.489.741.867.179.378.268.83.268 1.354 0 .525-.09.976-.268 1.355s-.426.667-.741.867c-.316.2-.676.299-1.079.299-.403 0-.763-.1-1.079-.299zm1.779-1.037c.169-.255.254-.65.254-1.184 0-.534-.085-.928-.254-1.183a.799.799 0 0 0-.7-.383.791.791 0 0 0-.693.383c-.17.255-.254.65-.254 1.183 0 .534.084.929.254 1.184.169.255.4.383.693.383a.8.8 0 0 0 .7-.383zM346.864 94.081c.385.416.578 1.013.578 1.794 0 .552-.103 1.026-.31 1.42-.207.395-.498.694-.874.898s-.81.306-1.302.306c-.26 0-.509-.029-.745-.087a1.996 1.996 0 0 1-.606-.247l.418-.829c.237.163.54.244.912.244.413 0 .74-.122.982-.366s.372-.596.39-1.055c-.292.293-.696.439-1.211.439-.311 0-.594-.063-.849-.188a1.432 1.432 0 0 1-.829-1.331c0-.324.081-.61.243-.856.163-.246.384-.435.665-.568.281-.132.593-.199.937-.199.682.002 1.216.21 1.601.625zm-.916 1.469a.665.665 0 0 0 .233-.525.665.665 0 0 0-.226-.522c-.151-.134-.359-.202-.623-.202-.242 0-.438.065-.589.195a.661.661 0 0 0-.226.529c0 .223.075.4.226.533.151.132.352.198.603.198.246 0 .447-.069.602-.206zM351.874 96.327c.128.195.192.42.192.675 0 .302-.086.565-.258.791a1.644 1.644 0 0 1-.725.522 2.922 2.922 0 0 1-1.079.184c-.408 0-.767-.062-1.076-.184a1.618 1.618 0 0 1-.717-.522 1.276 1.276 0 0 1-.255-.791c0-.255.064-.48.192-.675.128-.195.31-.353.547-.474a1.194 1.194 0 0 1-.418-.421 1.137 1.137 0 0 1-.146-.581c0-.283.079-.529.237-.738.158-.209.379-.37.662-.484.283-.113.608-.171.975-.171.371 0 .7.057.985.171.286.114.507.275.665.484.158.209.237.455.237.738 0 .218-.049.412-.146.581-.098.17-.239.31-.425.421.241.121.425.279.553.474zm-1.198 1.152a.614.614 0 0 0 .247-.512.607.607 0 0 0-.247-.509c-.165-.125-.388-.188-.672-.188-.279 0-.499.063-.662.188a.61.61 0 0 0-.243.509c0 .218.081.39.243.515.163.126.383.188.662.188.284.001.508-.063.672-.191zm-1.218-3.029a.543.543 0 0 0-.206.449c0 .186.067.332.202.438.134.107.318.161.55.161s.418-.054.557-.161a.521.521 0 0 0 .208-.438c0-.19-.07-.34-.208-.449-.139-.109-.325-.164-.557-.164-.227 0-.409.055-.546.164zM352.81 98.276a.663.663 0 0 1-.195-.487c0-.199.065-.36.195-.484a.672.672 0 0 1 .481-.184c.191 0 .351.062.481.184.13.123.195.285.195.484a.659.659 0 0 1-.195.487.653.653 0 0 1-.481.195.653.653 0 0 1-.481-.195zM357.667 95.784c.327.274.491.641.491 1.1 0 .298-.074.568-.223.811a1.556 1.556 0 0 1-.679.585c-.304.146-.679.219-1.125.219-.344 0-.681-.045-1.013-.136a2.58 2.58 0 0 1-.846-.387l.446-.863c.185.139.399.247.641.324.241.077.489.115.744.115.283 0 .506-.055.669-.167a.533.533 0 0 0 .244-.467.522.522 0 0 0-.255-.473c-.169-.107-.462-.161-.88-.161h-1.247l.251-2.743h2.973v.905h-2.033l-.077.926h.397c.687.001 1.195.138 1.522.412zM359.627 98.2a1.994 1.994 0 0 1-.741-.867c-.179-.379-.268-.83-.268-1.355 0-.524.09-.976.268-1.354.179-.379.426-.667.741-.867a1.98 1.98 0 0 1 1.079-.299c.403 0 .763.1 1.079.299.316.2.563.489.742.867.179.378.268.83.268 1.354 0 .525-.09.976-.268 1.355a2.008 2.008 0 0 1-.742.867c-.316.2-.675.299-1.079.299-.404 0-.763-.1-1.079-.299zm1.779-1.037c.169-.255.254-.65.254-1.184 0-.534-.085-.928-.254-1.183a.799.799 0 0 0-.7-.383c-.293 0-.523.128-.693.383-.17.255-.254.65-.254 1.183 0 .534.084.929.254 1.184.169.255.4.383.693.383a.801.801 0 0 0 .7-.383zM365.182 93.542v4.874h-1.128v-3.969h-.975v-.905h2.103zM366.191 98.276a.659.659 0 0 1-.195-.487c0-.199.065-.36.195-.484.13-.123.29-.184.481-.184s.35.062.481.184c.13.123.195.285.195.484a.659.659 0 0 1-.195.487c-.13.13-.29.195-.481.195s-.35-.065-.481-.195zM368.775 98.2a2.003 2.003 0 0 1-.742-.867c-.179-.379-.268-.83-.268-1.355 0-.524.09-.976.268-1.354.179-.379.426-.667.742-.867a1.98 1.98 0 0 1 1.079-.299c.403 0 .763.1 1.079.299.316.2.563.489.741.867.179.378.268.83.268 1.354 0 .525-.09.976-.268 1.355a2.013 2.013 0 0 1-.741.867c-.316.2-.675.299-1.079.299-.404 0-.763-.1-1.079-.299zm1.779-1.037c.169-.255.254-.65.254-1.184 0-.534-.085-.928-.254-1.183a.799.799 0 0 0-.7-.383c-.293 0-.523.128-.693.383-.17.255-.254.65-.254 1.183 0 .534.084.929.254 1.184.169.255.4.383.693.383a.801.801 0 0 0 .7-.383zM373.502 98.2a1.994 1.994 0 0 1-.741-.867c-.179-.379-.268-.83-.268-1.355 0-.524.09-.976.268-1.354.179-.379.426-.667.741-.867a1.983 1.983 0 0 1 1.079-.299c.403 0 .763.1 1.079.299.316.2.563.489.741.867.179.378.268.83.268 1.354 0 .525-.09.976-.268 1.355a2.013 2.013 0 0 1-.741.867c-.316.2-.675.299-1.079.299-.403 0-.763-.1-1.079-.299zm1.779-1.037c.169-.255.254-.65.254-1.184 0-.534-.085-.928-.254-1.183a.799.799 0 0 0-.7-.383.791.791 0 0 0-.693.383c-.17.255-.254.65-.254 1.183 0 .534.084.929.254 1.184.169.255.4.383.693.383a.8.8 0 0 0 .7-.383z"/><path d="M189.88 185.243v4.874h-1.128v-3.969h-.975v-.905h2.103zM191.035 185.243h2.214c.529 0 .997.101 1.403.303.406.202.722.486.947.853.225.367.337.794.337 1.281 0 .487-.112.914-.337 1.281a2.267 2.267 0 0 1-.947.853c-.406.202-.874.303-1.403.303h-2.214v-4.874zm2.159 3.947c.487 0 .876-.136 1.166-.407.29-.271.435-.639.435-1.104 0-.464-.145-.832-.435-1.103-.29-.272-.679-.408-1.166-.408h-1.031v3.022h1.031zM216.558 185.243v4.874h-1.128v-3.969h-.975v-.905h2.103zM225.08 185.243l-1.594 4.874h-1.212l-1.072-3.301-1.107 3.301h-1.205l-1.602-4.874h1.17l1.1 3.426 1.149-3.426h1.045l1.114 3.453 1.135-3.453h1.079zM245.133 185.243v4.874h-1.128v-3.969h-.975v-.905h2.103zM250.724 190.117l-.007-2.925-1.434 2.409h-.509l-1.427-2.346v2.862h-1.058v-4.874h.933l1.825 3.029 1.796-3.029h.926l.014 4.874h-1.059z"/><path style="fill:#407bff" d="M280.573 193.382H270.47a4 4 0 0 1-4-4v-3.14a4 4 0 0 1 4-4h10.103a4 4 0 0 1 4 4v3.14a4 4 0 0 1-4 4z"/><path style="fill:#fff" d="M273.666 187.704c.227.248.341.556.341.923 0 .283-.075.545-.223.784-.149.239-.375.43-.679.574-.304.144-.677.216-1.117.216-.344 0-.681-.045-1.013-.136a2.58 2.58 0 0 1-.846-.387l.438-.863c.186.139.401.247.644.324.244.077.493.115.748.115.283 0 .506-.054.669-.164a.526.526 0 0 0 .244-.463c0-.399-.304-.598-.913-.598h-.515v-.745l1.002-1.135h-2.075v-.905h3.412v.731l-1.1 1.253c.429.069.755.228.983.476zM279.271 190.117l-.007-2.925-1.434 2.409h-.509l-1.427-2.346v2.862h-1.058v-4.874h.933l1.824 3.029 1.796-3.029h.926l.014 4.874h-1.058z"/><path d="M301.298 187.248a1.434 1.434 0 0 1 .829 1.329c0 .325-.082.611-.243.857a1.595 1.595 0 0 1-.665.567 2.16 2.16 0 0 1-.936.199c-.682 0-1.216-.209-1.601-.626-.385-.418-.578-1.015-.578-1.79 0-.552.105-1.026.314-1.421.209-.394.5-.693.873-.898.374-.204.807-.307 1.298-.307.26 0 .509.029.749.087.239.059.442.141.609.247l-.418.829c-.241-.162-.545-.243-.912-.243-.413 0-.741.121-.982.362-.242.242-.372.592-.39 1.051.288-.288.689-.431 1.204-.431.31 0 .594.063.849.188zm-.491 1.915a.661.661 0 0 0 .226-.529c0-.223-.075-.4-.226-.533-.151-.133-.352-.199-.603-.199a.891.891 0 0 0-.606.205.666.666 0 0 0-.237.526c0 .214.077.387.23.522.153.135.362.202.626.202.243.001.439-.064.59-.194zM307.279 190.117l-.007-2.925-1.434 2.409h-.508l-1.428-2.346v2.862h-1.058v-4.874h.933l1.825 3.029 1.796-3.029h.926l.014 4.874h-1.059zM329.657 185.243v4.874h-1.128v-3.969h-.975v-.905h2.103zM333.152 188.39v1.727h-1.127v-1.741l-1.888-3.133h1.198l1.302 2.165 1.302-2.165h1.107l-1.894 3.147zM358.225 187.704c.227.248.341.556.341.923 0 .283-.075.545-.223.784-.149.239-.375.43-.679.574-.304.144-.677.216-1.117.216-.344 0-.681-.045-1.013-.136a2.58 2.58 0 0 1-.846-.387l.438-.863c.186.139.401.247.644.324.244.077.493.115.748.115.283 0 .506-.054.668-.164a.524.524 0 0 0 .244-.463c0-.399-.304-.598-.913-.598h-.515v-.745l1.002-1.135h-2.075v-.905h3.412v.731l-1.1 1.253c.429.069.756.228.984.476zM361.664 188.39v1.727h-1.127v-1.741l-1.888-3.133h1.198l1.302 2.165 1.302-2.165h1.107l-1.894 3.147z"/><path style="fill:#407bff" d="M178.043 159.421a1.394 1.394 0 0 1 1.17-1.584l26.304-3.946 28.043-11.633 28.181-3.757 27.651 9.678 27.616-11.967h27.914l26.315-8.772a1.393 1.393 0 0 1 1.761.88v.001a1.392 1.392 0 0 1-.881 1.761l-26.745 8.914h-27.788l-28.086 12.171-28.051-9.818-27.339 3.645-28.01 11.626-26.474 3.971a1.392 1.392 0 0 1-1.581-1.17z"/><path style="fill:#263238" d="m205.501 165.539-27.26-22.262a1.392 1.392 0 1 1 1.761-2.157l26.285 21.465 27.101-4.517 27.729-10.167 27.971-13.499 28.119-7.498 27.796 3.706 26.223-9.178a1.392 1.392 0 0 1 1.774.854v.001a1.392 1.392 0 0 1-.854 1.774l-26.851 9.398-27.906-3.721-27.455 7.322-27.732 13.403-28.228 10.332-28.473 4.744z"/><circle transform="rotate(-76.714 146 120.082)" style="fill:#407bff" cx="145.985" cy="120.077" r="7.576"/><path style="opacity:.5;fill:#fff" d="M164.287 143.771h-36.604c-.85 0-1.539-.689-1.539-1.538v-7.696c0-.85.689-1.539 1.539-1.539h36.604c.85 0 1.539.689 1.539 1.539v7.696c0 .85-.689 1.538-1.539 1.538z"/><path style="fill:#407bff" d="m131.292 139.987-1.581.831.302-1.761-1.279-1.247 1.767-.257.791-1.601.791 1.601 1.767.257-1.279 1.247.302 1.761zM138.638 139.987l-1.581.831.302-1.761-1.279-1.247 1.768-.257.79-1.601.791 1.601 1.768.257-1.279 1.247.302 1.761zM145.985 139.987l-1.581.831.302-1.761-1.28-1.247 1.768-.257.791-1.601.79 1.601 1.768.257-1.279 1.247.302 1.761z"/><path style="opacity:.9;fill:#fff" d="m153.331 139.987-1.581.831.302-1.761-1.279-1.247 1.768-.257.79-1.601.791 1.601 1.768.257-1.279 1.247.302 1.761zM160.678 139.987l-1.582.831.302-1.761-1.279-1.247 1.768-.257.791-1.601.79 1.601 1.768.257-1.279 1.247.302 1.761z"/><circle transform="rotate(-76.714 146 161.782)" style="fill:#263238" cx="145.985" cy="161.775" r="7.576"/><circle transform="rotate(-76.714 146 161.782)" style="opacity:.7;fill:#fff" cx="145.985" cy="161.775" r="7.576"/><path style="opacity:.5;fill:#fff" d="M164.287 185.469h-36.604c-.85 0-1.539-.689-1.539-1.538v-7.696c0-.85.689-1.539 1.539-1.539h36.604c.85 0 1.539.689 1.539 1.539v7.696c0 .849-.689 1.538-1.539 1.538z"/><path style="fill:#407bff" d="m131.292 181.684-1.581.831.302-1.76-1.279-1.247 1.767-.257.791-1.602.791 1.602 1.767.257-1.279 1.247.302 1.76zM138.638 181.684l-1.581.831.302-1.76-1.279-1.247 1.768-.257.79-1.602.791 1.602 1.768.257-1.279 1.247.302 1.76z"/><path style="opacity:.9;fill:#fff" d="m145.985 181.684-1.581.831.302-1.76-1.28-1.247 1.768-.257.791-1.602.79 1.602 1.768.257-1.279 1.247.302 1.76zM153.331 181.684l-1.581.831.302-1.76-1.279-1.247 1.768-.257.79-1.602.791 1.602 1.768.257-1.279 1.247.302 1.76zM160.678 181.684l-1.582.831.302-1.76-1.279-1.247 1.768-.257.791-1.602.79 1.602 1.768.257-1.279 1.247.302 1.76z"/><circle transform="rotate(-45.001 145.983 203.475)" style="fill:#407bff" cx="145.985" cy="203.472" r="7.576"/><circle transform="rotate(-45.001 145.983 203.475)" style="opacity:.3;fill:#fff" cx="145.985" cy="203.472" r="7.576"/><path style="opacity:.5;fill:#fff" d="M164.287 227.166h-36.604c-.85 0-1.539-.689-1.539-1.538v-7.696c0-.85.689-1.539 1.539-1.539h36.604c.85 0 1.539.689 1.539 1.539v7.696c0 .849-.689 1.538-1.539 1.538z"/><path style="fill:#407bff" d="m131.292 223.381-1.581.832.302-1.761-1.279-1.247 1.767-.257.791-1.602.791 1.602 1.767.257-1.279 1.247.302 1.761zM138.638 223.381l-1.581.832.302-1.761-1.279-1.247 1.768-.257.79-1.602.791 1.602 1.768.257-1.279 1.247.302 1.761zM145.985 223.381l-1.581.832.302-1.761-1.28-1.247 1.768-.257.791-1.602.79 1.602 1.768.257-1.279 1.247.302 1.761zM153.331 223.381l-1.581.832.302-1.761-1.279-1.247 1.768-.257.79-1.602.791 1.602 1.768.257-1.279 1.247.302 1.761z"/><path style="opacity:.9;fill:#fff" d="m160.678 223.381-1.582.832.302-1.761-1.279-1.247 1.768-.257.791-1.602.79 1.602 1.768.257-1.279 1.247.302 1.761z"/><circle transform="rotate(-45.001 145.983 245.172)" style="fill:#263238" cx="145.985" cy="245.169" r="7.576"/><circle transform="rotate(-45.001 145.983 245.172)" style="opacity:.5;fill:#fff" cx="145.985" cy="245.169" r="7.576"/><path style="opacity:.5;fill:#fff" d="M164.287 268.863h-36.604c-.85 0-1.539-.689-1.539-1.539v-7.696c0-.85.689-1.539 1.539-1.539h36.604c.85 0 1.539.689 1.539 1.539v7.696c0 .85-.689 1.539-1.539 1.539z"/><path style="fill:#407bff" d="m131.292 265.079-1.581.831.302-1.761-1.279-1.247 1.767-.257.791-1.602.791 1.602 1.767.257-1.279 1.247.302 1.761zM138.638 265.079l-1.581.831.302-1.761-1.279-1.247 1.768-.257.79-1.602.791 1.602 1.768.257-1.279 1.247.302 1.761z"/><path style="opacity:.9;fill:#fff" d="m145.985 265.079-1.581.831.302-1.761-1.28-1.247 1.768-.257.791-1.602.79 1.602 1.768.257-1.279 1.247.302 1.761z"/><path style="fill:#407bff" d="m145.985 265.079-1.581.831.302-1.761-1.28-1.247 1.768-.257.791-1.602z"/><path style="opacity:.9;fill:#fff" d="m153.331 265.079-1.581.831.302-1.761-1.279-1.247 1.768-.257.79-1.602.791 1.602 1.768.257-1.279 1.247.302 1.761zM160.678 265.079l-1.582.831.302-1.761-1.279-1.247 1.768-.257.791-1.602.79 1.602 1.768.257-1.279 1.247.302 1.761z"/><path style="fill:#407bff" d="M180.828 251.954h8.111v15.348h-8.111zM200.406 246.089h8.111v21.212h-8.111zM219.983 235.316h8.111v31.985h-8.111z"/><path style="fill:#263238" d="M190.617 243.136h8.111v24.165h-8.111zM210.194 240.703h8.111v26.598h-8.111zM229.772 241.332h8.111v25.969h-8.111z"/><g style="opacity:.6"><path style="fill:#fff" d="M190.617 243.136h8.111v24.165h-8.111zM210.194 240.703h8.111v26.598h-8.111zM229.772 241.332h8.111v25.969h-8.111z"/></g><path style="fill:#407bff" d="M239.56 232.241h8.111v35.06h-8.111zM325.653 267.302h-66.842l4.527-15.348 9.317-8.818 9.789 13.559 9.788-15.992 9.789 10.606 9.789-9.977 9.788-9.091h4.055z"/><path style="opacity:.8;fill:#fff" d="M325.653 267.302h-66.842l4.527-10.249 9.317-7.542 9.789 7.184 9.788-8.343 9.789 2.957 9.789-2.327 9.788-3.992 4.055-12.749z"/><path style="fill:#407bff" d="M353.455 216.75h16.294c0-8.999-7.295-16.294-16.294-16.294s-16.294 7.295-16.294 16.294h16.294z"/><path style="opacity:.5;fill:#fff" d="M353.455 216.75h16.294c0-8.999-7.295-16.294-16.294-16.294s-16.294 7.295-16.294 16.294h16.294z"/><path style="opacity:.7;fill:#fff" d="M364.977 205.228a16.241 16.241 0 0 0-11.521-4.772c-8.999 0-16.294 7.295-16.294 16.294h16.294l11.521-11.522z"/><path style="opacity:.2" d="m341.934 205.206 11.521 11.521v-16.294a16.242 16.242 0 0 0-11.521 4.773z"/><path style="fill:#407bff" d="m341.934 205.206 11.521 11.521v-16.294a16.242 16.242 0 0 0-11.521 4.773z"/><path style="opacity:.5;fill:#fff" d="m341.934 205.206 11.521 11.521v-16.294a16.242 16.242 0 0 0-11.521 4.773z"/><path d="m362.441 208.935-1.17-1.174-7.372 7.353c-.145-.04-.286-.09-.444-.09a1.703 1.703 0 1 0 1.702 1.703c0-.156-.049-.296-.089-.439l7.373-7.353z"/><path style="fill:#407bff" d="M353.455 242.356h16.294c0-8.999-7.295-16.294-16.294-16.294s-16.294 7.295-16.294 16.294h16.294z"/><path style="opacity:.5;fill:#fff" d="M353.455 242.356h16.294c0-8.999-7.295-16.294-16.294-16.294s-16.294 7.295-16.294 16.294h16.294z"/><path style="opacity:.7;fill:#fff" d="M364.977 230.835a16.241 16.241 0 0 0-11.521-4.772c-8.999 0-16.294 7.295-16.294 16.294h16.294l11.521-11.522z"/><path style="fill:#407bff" d="m341.934 230.812 11.521 11.521V226.04a16.241 16.241 0 0 0-11.521 4.772z"/><path style="opacity:.5;fill:#fff" d="m341.934 230.812 11.521 11.521V226.04a16.241 16.241 0 0 0-11.521 4.772z"/><path d="M354.284 240.876v-9.471h-1.657v9.471c-.513.293-.874.824-.874 1.457a1.703 1.703 0 0 0 3.405 0c0-.633-.361-1.163-.874-1.457z"/><path style="fill:#407bff" d="M353.455 267.962h16.294c0-8.999-7.295-16.294-16.294-16.294s-16.294 7.295-16.294 16.294h16.294z"/><path style="opacity:.5;fill:#fff" d="M353.455 267.962h16.294c0-8.999-7.295-16.294-16.294-16.294s-16.294 7.295-16.294 16.294h16.294z"/><path style="opacity:.7;fill:#fff" d="M364.977 256.441a16.241 16.241 0 0 0-11.521-4.772c-8.999 0-16.294 7.295-16.294 16.294h16.294l11.521-11.522z"/><path style="fill:#407bff" d="m341.934 256.418 11.521 11.521v-16.294a16.25 16.25 0 0 0-11.521 4.773z"/><path style="opacity:.5;fill:#fff" d="m341.934 256.418 11.521 11.521v-16.294a16.25 16.25 0 0 0-11.521 4.773z"/><path d="m362.441 260.148-1.17-1.174-7.372 7.353c-.145-.04-.286-.09-.444-.09a1.703 1.703 0 1 0 1.702 1.703c0-.156-.049-.296-.089-.439l7.373-7.353z"/><path style="fill:#407bff" d="m375.611 102.86-10.949.119a2.724 2.724 0 0 0-2.695 2.755l.099 9.161a2.725 2.725 0 0 0 2.746 2.696l3.168-.024 1.368 2.118a1.155 1.155 0 0 0 1.961-.033l1.302-2.174 3.15-.024a2.724 2.724 0 0 0 2.704-2.755l-.099-9.143a2.725 2.725 0 0 0-2.755-2.696z"/><path style="fill:#fff" d="M367.192 110.275a1.058 1.058 0 0 1 .606.974c0 .238-.06.447-.178.627-.12.181-.281.319-.488.416a1.583 1.583 0 0 1-.685.145c-.501 0-.892-.153-1.174-.459-.281-.306-.423-.743-.423-1.31 0-.405.077-.751.23-1.04.153-.289.366-.509.64-.658.274-.15.59-.225.951-.225.19 0 .372.021.548.064.176.042.324.103.446.181l-.305.606c-.177-.119-.4-.178-.669-.178-.302 0-.542.088-.718.265-.177.177-.273.433-.286.77.212-.211.505-.316.883-.316.228.001.434.046.622.138zm-.359 1.403c.11-.095.166-.225.166-.388s-.056-.293-.166-.39a.652.652 0 0 0-.442-.145.65.65 0 0 0-.443.151.485.485 0 0 0-.173.385c0 .156.056.284.168.383.112.098.265.147.459.147a.644.644 0 0 0 .431-.143zM368.838 112.218a1.48 1.48 0 0 1-.543-.635c-.131-.277-.197-.607-.197-.992s.066-.715.197-.992a1.47 1.47 0 0 1 .543-.634c.232-.146.496-.22.791-.22.296 0 .559.073.791.22.232.146.412.357.543.634.131.278.197.608.197.992s-.066.715-.197.992a1.466 1.466 0 0 1-.543.635 1.45 1.45 0 0 1-.791.219c-.295 0-.559-.073-.791-.219zm1.304-.76c.124-.187.185-.476.185-.867s-.061-.68-.185-.867a.585.585 0 0 0-.513-.28.578.578 0 0 0-.507.28c-.124.187-.187.476-.187.867s.062.68.187.867a.578.578 0 0 0 .507.281.586.586 0 0 0 .513-.281zM371.748 110.466c-.164-.179-.248-.417-.248-.716s.083-.538.248-.716a.83.83 0 0 1 .64-.268.82.82 0 0 1 .637.268c.163.179.245.418.245.716 0 .299-.082.538-.245.716a.822.822 0 0 1-.637.268.828.828 0 0 1-.64-.268zm.913-.293c.066-.095.1-.236.1-.423s-.034-.328-.1-.423a.315.315 0 0 0-.273-.143.317.317 0 0 0-.27.145c-.069.097-.102.237-.102.421s.034.324.102.421a.314.314 0 0 0 .27.145.315.315 0 0 0 .273-.143zm1.853-1.366h.608l-2.438 3.569h-.608l2.438-3.569zm-.16 3.49a.82.82 0 0 1-.314-.344 1.144 1.144 0 0 1-.112-.52c0-.197.037-.37.112-.52a.807.807 0 0 1 .314-.344.876.876 0 0 1 .457-.12c.261 0 .474.09.64.268.164.178.246.417.246.716s-.082.538-.246.716a.833.833 0 0 1-.64.268.873.873 0 0 1-.457-.12zm.729-.444c.066-.097.1-.237.1-.421 0-.183-.034-.324-.1-.42a.314.314 0 0 0-.273-.146.316.316 0 0 0-.27.143c-.068.095-.102.236-.102.423s.034.329.102.423a.316.316 0 0 0 .27.143.311.311 0 0 0 .273-.145z"/><path style="fill:#263238" d="m364.849 150.769 10.949-.119a2.724 2.724 0 0 0 2.695-2.755l-.099-9.161a2.725 2.725 0 0 0-2.746-2.696l-3.168.024-1.368-2.118a1.155 1.155 0 0 0-1.961.033l-1.302 2.173-3.15.024a2.724 2.724 0 0 0-2.704 2.755l.099 9.143a2.726 2.726 0 0 0 2.755 2.697z"/><path style="fill:#fff" d="M367.297 143.949c.239.201.359.469.359.806 0 .217-.054.415-.163.594a1.129 1.129 0 0 1-.497.428c-.223.107-.498.161-.824.161-.251 0-.498-.033-.742-.099a1.932 1.932 0 0 1-.619-.283l.326-.632c.136.102.293.181.469.237s.359.084.545.084c.207 0 .371-.041.489-.122a.39.39 0 0 0 .179-.342.383.383 0 0 0-.187-.347c-.124-.078-.339-.118-.645-.118h-.913l.183-2.009h2.177v.663h-1.489l-.056.678h.291c.506 0 .877.101 1.117.301zM368.731 145.719a1.48 1.48 0 0 1-.543-.635c-.131-.277-.197-.607-.197-.992 0-.384.066-.715.197-.992a1.47 1.47 0 0 1 .543-.634c.232-.146.496-.22.791-.22.296 0 .559.074.791.22.232.146.412.357.543.634.131.278.197.608.197.992s-.066.715-.197.992a1.466 1.466 0 0 1-.543.635 1.45 1.45 0 0 1-.791.219c-.295 0-.559-.073-.791-.219zm1.304-.76c.125-.187.186-.476.186-.867s-.061-.68-.186-.867a.583.583 0 0 0-.513-.28.577.577 0 0 0-.507.28c-.125.187-.187.476-.187.867s.062.68.187.867a.578.578 0 0 0 .507.281.586.586 0 0 0 .513-.281zM371.641 143.967c-.164-.179-.248-.417-.248-.717 0-.299.083-.538.248-.717a.83.83 0 0 1 .64-.268c.261 0 .474.089.637.268.163.179.245.418.245.717s-.082.538-.245.717a.822.822 0 0 1-.637.268.828.828 0 0 1-.64-.268zm.912-.293c.066-.095.1-.236.1-.423s-.034-.328-.1-.423a.315.315 0 0 0-.273-.143.317.317 0 0 0-.27.145c-.069.097-.102.237-.102.421s.034.324.102.421a.314.314 0 0 0 .27.145.316.316 0 0 0 .273-.143zm1.854-1.367h.608l-2.438 3.57h-.608l2.438-3.57zm-.16 3.491a.82.82 0 0 1-.314-.344 1.144 1.144 0 0 1-.112-.52c0-.197.037-.37.112-.52a.807.807 0 0 1 .314-.344.873.873 0 0 1 .457-.12c.262 0 .474.09.64.268.164.178.247.417.247.716s-.082.538-.247.717a.83.83 0 0 1-.64.268.883.883 0 0 1-.457-.121zm.729-.444c.066-.096.1-.237.1-.421 0-.183-.034-.324-.1-.42a.314.314 0 0 0-.273-.146.316.316 0 0 0-.27.143c-.069.095-.102.236-.102.423s.034.329.102.423a.316.316 0 0 0 .27.143.311.311 0 0 0 .273-.145z"/><path style="fill:#263238" d="M260.753 213.689a1.315 1.315 0 0 1 0-2.63h40.678a1.315 1.315 0 0 1 0 2.63h-40.678zM260.753 223.171a1.315 1.315 0 0 1 0-2.63h32.749a1.315 1.315 0 0 1 0 2.63h-32.749zM260.753 218.43a1.315 1.315 0 0 1 0-2.63h29.403a1.315 1.315 0 0 1 0 2.63h-29.403z"/><g style="opacity:.5"><path style="fill:#fff" d="M260.753 213.689a1.315 1.315 0 0 1 0-2.63h40.678a1.315 1.315 0 0 1 0 2.63h-40.678zM260.753 223.171a1.315 1.315 0 0 1 0-2.63h32.749a1.315 1.315 0 0 1 0 2.63h-32.749zM260.753 218.43a1.315 1.315 0 0 1 0-2.63h29.403a1.315 1.315 0 0 1 0 2.63h-29.403z"/></g><path style="fill:#263238" d="M182.143 213.689a1.315 1.315 0 0 1 0-2.63h40.678a1.315 1.315 0 0 1 0 2.63h-40.678zM182.143 223.171a1.315 1.315 0 0 1 0-2.63h23.825a1.315 1.315 0 0 1 0 2.63h-23.825zM182.143 218.43a1.315 1.315 0 0 1 0-2.63h34.502a1.315 1.315 0 0 1 0 2.63h-34.502z"/><g style="opacity:.5"><path style="fill:#fff" d="M182.143 213.689a1.315 1.315 0 0 1 0-2.63h40.678a1.315 1.315 0 0 1 0 2.63h-40.678zM182.143 223.171a1.315 1.315 0 0 1 0-2.63h23.825a1.315 1.315 0 0 1 0 2.63h-23.825zM182.143 218.43a1.315 1.315 0 0 1 0-2.63h34.502a1.315 1.315 0 0 1 0 2.63h-34.502z"/></g><path style="fill:#407bff" d="M355.322 223.874h-17.385c-.86 0-1.618-.697-1.694-1.557l-2.265-25.885c-.075-.86.561-1.558 1.421-1.558h17.385c.86 0 1.618.697 1.694 1.558l2.265 25.885c.075.86-.561 1.557-1.421 1.557z"/><path style="fill:#407bff" d="M356.322 223.874h-17.385c-.86 0-1.618-.697-1.694-1.557l-2.265-25.885c-.075-.86.561-1.558 1.421-1.558h17.385c.86 0 1.618.697 1.694 1.558l2.265 25.885c.075.86-.561 1.557-1.421 1.557z"/><path style="opacity:.5" d="M356.322 223.874h-17.385c-.86 0-1.618-.697-1.694-1.557l-2.265-25.885c-.075-.86.561-1.558 1.421-1.558h17.385c.86 0 1.618.697 1.694 1.558l2.265 25.885c.075.86-.561 1.557-1.421 1.557z"/><path style="opacity:.6;fill:#fff" d="M353.872 195.874h-17.385a.503.503 0 0 0-.508.558l2.265 25.885a.621.621 0 0 0 .606.557h17.385c.308 0 .536-.25.509-.557l-2.265-25.885a.622.622 0 0 0-.607-.558z"/><path style="opacity:.3;fill:#fff" d="m356.743 222.317-2.234-25.536-16.048 25.942a.6.6 0 0 0 .388.151h17.385c.308 0 .536-.25.509-.557z"/><path style="opacity:.9;fill:#fff" d="M351.135 209.374h-9.004a1.157 1.157 0 0 1-1.131-1.04l-.465-5.315a.938.938 0 0 1 .949-1.04h9.004c.574 0 1.081.466 1.131 1.04l.465 5.315a.937.937 0 0 1-.949 1.04zM351.945 218.624h-9.004a1.157 1.157 0 0 1-1.131-1.04l-.465-5.315a.938.938 0 0 1 .949-1.04h9.004c.574 0 1.081.466 1.131 1.04l.465 5.315a.938.938 0 0 1-.949 1.04z"/><path style="fill:#263238" d="M342.285 204.115a.352.352 0 0 1-.344-.316.285.285 0 0 1 .289-.316h7.232c.175 0 .329.142.344.316a.285.285 0 0 1-.289.316h-7.232zM342.485 206.397a.352.352 0 0 1-.344-.316.285.285 0 0 1 .289-.316h6.004c.175 0 .329.142.344.316a.285.285 0 0 1-.289.316h-6.004zM342.385 205.256a.352.352 0 0 1-.344-.316.285.285 0 0 1 .289-.316h4.776c.175 0 .329.142.344.316a.285.285 0 0 1-.289.316h-4.776z"/><g style="opacity:.5"><path style="fill:#fff" d="M342.285 204.115a.352.352 0 0 1-.344-.316.285.285 0 0 1 .289-.316h7.232c.175 0 .329.142.344.316a.285.285 0 0 1-.289.316h-7.232zM342.485 206.397a.352.352 0 0 1-.344-.316.285.285 0 0 1 .289-.316h6.004c.175 0 .329.142.344.316a.285.285 0 0 1-.289.316h-6.004zM342.385 205.256a.352.352 0 0 1-.344-.316.285.285 0 0 1 .289-.316h4.776c.175 0 .329.142.344.316a.285.285 0 0 1-.289.316h-4.776z"/></g><path style="fill:#263238" d="M343.106 213.498a.352.352 0 0 1-.344-.316.285.285 0 0 1 .289-.316h7.232c.175 0 .329.142.344.316a.285.285 0 0 1-.289.316h-7.232zM343.206 214.639a.352.352 0 0 1-.344-.316.285.285 0 0 1 .289-.316h4.776c.175 0 .329.142.344.316a.285.285 0 0 1-.289.316h-4.776z"/><g style="opacity:.5"><path style="fill:#fff" d="M343.106 213.498a.352.352 0 0 1-.344-.316.285.285 0 0 1 .289-.316h7.232c.175 0 .329.142.344.316a.285.285 0 0 1-.289.316h-7.232zM343.206 214.639a.352.352 0 0 1-.344-.316.285.285 0 0 1 .289-.316h4.776c.175 0 .329.142.344.316a.285.285 0 0 1-.289.316h-4.776z"/></g><path style="fill:#263238" d="M370.867 179.247c.165-.578-.007-1.135-.385-1.243-.378-.108-.818.273-.984.852-.165.578.007 1.135.385 1.242.379.108.819-.273.984-.851z"/><path style="fill:#de5753" d="m370.108 180.124-4.416 2.831s.876 1.6 3.05 1.794l1.366-4.625z"/><path style="fill:#e4897b" d="M390.646 185.529c-2.963 6.993-4.068 10.023-8.974 12.417-6.837 1.787-15.336-1.568-14.518-9.311.732-6.967 5.444-17.208 13.467-17.62 5.719-.291 10.591 4.109 10.882 9.828a10.358 10.358 0 0 1-.857 4.686z"/><path style="fill:#263238" d="M372.27 178.174a.372.372 0 0 1-.24-.232 2.775 2.775 0 0 0-1.717-1.873.352.352 0 0 1-.237-.432.36.36 0 0 1 .435-.245 3.489 3.489 0 0 1 2.196 2.338.343.343 0 0 1-.202.441l-.017.006a.309.309 0 0 1-.218-.003z"/><path style="opacity:.2" d="M374.349 194.659s-5.086 1.034-7.096-3.408c.683 3.564 3.647 5.837 7.216 6.728l1.225-.855-.663-1.809-.682-.656z"/><path style="fill:#e4897b" d="M383.594 206.262s-4.395-2.152-1.227-10.531c0 0-3.509-3.481-7.157-2.004-3.648 1.477-.586 9.195-4.88 10.385 0-.001 2.242 3.103 13.264 2.15z"/><path style="fill:#263238" d="M370.681 178.124s-.633-.109-1.07-.818c0 0 .066.792.908 1.094l.162-.276z"/><path style="fill:#407bff" d="M368.236 204.456s2.625-4.087 9.688-3.275 5.671 5.08 5.671 5.08l-15.359-1.805z"/><path style="opacity:.3;fill:#fff" d="M368.236 204.456s2.625-4.087 9.688-3.275 5.671 5.08 5.671 5.08l-15.359-1.805z"/><path style="fill:#263238" d="M373.925 183.629s.023-2.77 2.045-5.776c2.022-3.005.878-4.949.992-6.852.114-1.903 9.864-3.82 13.614 2.68 0 0 6.75 5.833 2 12.833s-6.667 12.345-12.417 11.464c-5.75-.88-2.484-10.39-6.234-14.349z"/><path style="opacity:.4" d="M390.576 173.682c-1.711-2.966-4.669-4.169-7.393-4.43-1.49 3.322 2.448 7.002 2.448 7.002s-5.784 1.426-4.862 6.162c.922 4.737 7.657 2.244 7.657 2.244s-4.248 4.117-1.135 6.553c.681.533 1.333.635 1.941.495.997-1.554 2.068-3.31 3.345-5.193 4.749-7-2.001-12.833-2.001-12.833z"/><path style="fill:#407bff" d="M390.576 173.682a8.414 8.414 0 0 0-1.5-1.893 8.16 8.16 0 0 0-4.445 7.263c0 6.735 5.968 8.009 7.499 8.133.148-.223.291-.443.445-.67 4.751-7-1.999-12.833-1.999-12.833z"/><path style="fill:#e4897b" d="M374.412 181.431a5.836 5.836 0 0 0-2.369 3.799c-.32 2.033 1.561 2.829 3.357 2.081 1.627-.677 3.734-2.551 3.233-4.509-.501-1.958-2.663-2.455-4.221-1.371z"/><path style="fill:#263238" d="M388.085 176.788s-5.183-5.764-.842-9.106c3.5-2.695 6.196 4.125 6.196 4.125s-.571-7.625 4.804-6.75c5.424.883 2.125 7.5 2.125 7.5s4.75-3 6.75.25-3.822 5.389-3.822 5.389 6.572 3.874 3.447 6.555c-3.125 2.681-6.125-.522-6.125-.522s1.875 5.203-1.625 6.023c-3.169.742-4.125-4.07-4.125-4.07s-2.375 5.75-5.25 3.5.125-6.053.125-6.053-5.297 2.303-6.149-2.072c-.851-4.375 4.491-4.769 4.491-4.769z"/><path style="fill:#e4897b" d="M397.119 222.767s9.51 20.438 4.929 22.289c-4.58 1.852-18.552 5.001-18.552 5.001l-6.724 2.432-3.898-2.534.989-6.555 9.841 2.148 11.804-5.288-5.576-12.42 7.187-5.073z"/><path style="fill:#407bff" d="M392.581 211.798a.655.655 0 0 1 1.086.184c2.181 5.047 12.429 29.294 9.569 32.825-2.127 2.625-12.414 4-12.414 4l-2.189-5.875 6.238-2.875-7.019-15.995c0-.001-.744-6.119 4.729-12.264z"/><path style="opacity:.2" d="m387.852 224.061 3.742 8.529c3.1-18.439.987-20.792.987-20.792-5.473 6.145-4.729 12.263-4.729 12.263z"/><path style="fill:#e4897b" d="m389.307 386.849 5.363 18.23 5.443-.316-1.153-19.791z"/><path style="fill:#263238" d="M361.094 251.873s-6.616 13.302-.256 37.76c6.361 24.458 31.81 109.667 31.81 109.667l7.167-.861s.451-30.576-9.631-55.25c0 0-4.838-41.948-2.482-51.809 1.647-6.894 2.65-12.655-.194-23.095-1.606-5.899-3.158-10.134-4.592-12.989-1.872-3.729-1.319-5.163-1.319-5.163l-20.503 1.74z"/><path style="opacity:.5" d="m392.649 399.3 7.167-.861s.016-1.182-.031-3.247l-8.036 1.091.9 3.017z"/><path style="opacity:.4" d="M369.561 320.803c9.195-25.555 6.664-44.096 6.664-44.096l-5.75-.75-4.5 8-3.136 13.109c1.781 6.473 4.126 14.726 6.722 23.737z"/><path style="fill:#263238" d="m394.53 404.555 6.469-.903a.606.606 0 0 1 .644.398l3.085 5.913a1.007 1.007 0 0 1-.812 1.34c-2.698.279-5.11.421-8.461.831-3.956.48-2.895.831-7.537 1.46-2.798.376-3.696-2.747-2.527-3.047 5.355-1.342 5.721-3.053 7.583-5.253.41-.428.964-.691 1.556-.739zM391.073 397.975l9.934-1.247-.153 2.96-8.762 1.084z"/><path style="fill:#e4897b" d="m361.841 388.082 2.343 18.166h5.5l1.416-17.833z"/><path style="fill:#263238" d="M352.346 249.832s-.081 1.579-1.332 4.764c-2.235 5.69-6.012 16.504-4.141 32.598 2.919 25.103 16.346 113.011 16.346 113.011h7.227s4.95-29.873-.892-56.189c0 0-2.071-37.045 1.013-46.703 2.147-6.724 8.22-13.232 6.663-27.438-1.557-14.205-5.326-19.07-5.326-19.07l-19.558-.973z"/><path style="opacity:.5" d="m362.721 396.938.498 3.268h7.227s.195-1.186.461-3.268h-8.186z"/><path style="fill:#263238" d="m364.063 405.68 6.435.136a.6.6 0 0 1 .576.478l1.233 6.073a.995.995 0 0 1-.979 1.2c-2.679-.095-5.06-.286-8.397-.342-3.938-.071-2.947.418-7.578.4-2.79-.014-3.243-3.194-2.057-3.329 5.426-.582 7.018-2.207 9.141-4.106a2.4 2.4 0 0 1 1.626-.51zM361.841 398.675h10.021l-.56 2.911h-8.838z"/><path style="fill:#407bff" d="M387.736 262.431c-10.254-14.125 7.625-45.5 5.531-51.368-2.094-5.868-34.656-15.632-38.934 1.001-4.278 16.632-2.007 28.015-2.65 35.243-.947 10.625-5.322 14.875-5.322 14.875s22.625 8.499 41.375.249z"/><path style="opacity:.2" d="M352.066 224.983c-.549 5.709-.442 10.572-.337 14.653 12.112-14.041 9.431-27.329 9.431-27.329l-.985.625-4.375 3.625s-1.736 3.728-3.734 8.426z"/><path style="fill:#e4897b" d="M333.18 222.884s3.392 17.695 7.262 20.766c3.87 3.07 17.246-18.81 17.246-18.81l-6.611-3.954-9.168 12.327-5.413-12.689 1.073-6.769-1.764-4.149c-.581-1.037-2.095-.972-2.585.112l-2 4.428a3.919 3.919 0 0 0-.118 2.935l2.078 5.803z"/><path style="fill:#407bff" d="m341.902 232.089-3.167-7.667-4.224 6.254s2.099 14.927 7.474 13.537c5.133-1.328 16.738-18.789 19.25-25.522 2.512-6.733-.887-13.294-.887-13.294s-4.113-1.067-9.401 11.339c-4.545 10.662-9.045 15.353-9.045 15.353z"/><path style="fill:#263238" d="M124.601 198.18c-1.138-.961-2.878-.615-3.601.687-4.06 7.314-15.721 29.413-12.007 35.563 4.472 7.406 25.709 6.812 25.709 6.812l1.025-6.283-13.629-7.053s4.2-8.378 5.478-11.227c1.968-4.381 4.896-11.853-2.975-18.499z"/><path style="opacity:.4" d="M122.099 227.906s4.199-8.378 5.479-11.227c1.42-3.165 3.341-7.944 1.331-12.858l-3.479-3.692-3.331 1.054s-6.752 32.548.022 39.225c2.319.364 4.61.576 6.589.695 2.38-1.381 4.116-4.365 5.265-7.051l-11.876-6.146z"/><path style="fill:#263238" d="M144.554 167.385c-.188-.66.008-1.294.439-1.418.431-.123.933.312 1.122.971.188.66-.008 1.294-.44 1.417-.43.124-.932-.311-1.121-.97z"/><path style="fill:#a24e3f" d="m145.421 168.386 5.037 3.23s-1 1.825-3.48 2.047l-1.557-5.277z"/><path style="fill:#b97964" d="M121.991 174.552c3.38 7.978 4.641 11.435 10.237 14.165 7.799 2.039 17.495-1.789 16.563-10.622-.835-7.949-6.21-19.632-15.363-20.102-6.524-.332-12.083 4.688-12.415 11.212a11.814 11.814 0 0 0 .978 5.347z"/><path style="fill:#263238" d="M142.954 166.161a.42.42 0 0 0 .273-.265 3.167 3.167 0 0 1 1.959-2.137.402.402 0 0 0 .271-.492.411.411 0 0 0-.497-.279 3.985 3.985 0 0 0-2.506 2.667.391.391 0 0 0 .231.503l.019.007c.081.028.17.027.25-.004z"/><path style="opacity:.2" d="M140.583 184.967s5.802 1.18 8.095-3.887c-.779 4.066-4.161 6.659-8.232 7.675l-1.398-.976.756-2.064.779-.748z"/><path style="fill:#b97964" d="M129.344 199.897s5.598-2.741 1.563-13.413c0 0 4.469-4.434 9.116-2.553 4.646 1.881.746 11.711 6.215 13.226-.001.001-2.856 3.954-16.894 2.74z"/><path style="fill:#263238" d="M130.403 194.522s-1.013-3.633 5.202-5.156c6.214-1.523 11.381.347 12.209 3.07.828 2.724-17.411 2.086-17.411 2.086z"/><path style="opacity:.2;fill:#fff" d="M130.403 194.522s-1.013-3.633 5.202-5.156c6.214-1.523 11.381.347 12.209 3.07.828 2.724-17.411 2.086-17.411 2.086z"/><path style="fill:#263238" d="M142.956 172.591s2.04-1.694 0-3.567c-2.04-1.873-5.023-3.468-4.145-6.05.878-2.582-3.117-4.367-3.117-4.367s3.91-2.55 1.615-4.59c-2.361-2.099-3.334 1.785-8.841 3.961-6.341 2.506-13.431 8.535-9.096 16.44 4.335 7.906 8.161 14.536 13.346 13.261 5.185-1.275 7.651-11.306 7.651-11.306l2.587-3.782z"/><path style="fill:#b97964" d="M141.53 169.876a6.659 6.659 0 0 1 2.703 4.334c.366 2.32-1.781 3.228-3.829 2.374-1.856-.772-4.26-2.91-3.689-5.144.571-2.233 3.039-2.8 4.815-1.564zM153.731 392.466l1.967 13.339 8.025-.294.603-13.805z"/><path style="fill:#263238" d="m163.28 404.56-7.909.167a.736.736 0 0 0-.708.588l-1.516 7.464a1.223 1.223 0 0 0 1.203 1.475c3.293-.117 6.219-.351 10.32-.421 4.84-.087 3.622.514 9.313.492 3.429-.017 3.985-3.926 2.528-4.091-6.668-.716-8.625-2.712-11.234-5.047a2.95 2.95 0 0 0-1.997-.627z"/><path style="fill:#b97964" d="m114.612 392.466-.52 11.821 8.331 1.091 2.783-13.672z"/><path style="fill:#263238" d="m121.939 403.238-7.895-.496a.737.737 0 0 0-.755.526l-2.136 7.311a1.223 1.223 0 0 0 1.075 1.571c3.291.159 6.226.171 10.319.445 4.83.319 3.566.816 9.239 1.27 3.418.27 4.3-3.578 2.862-3.865-6.585-1.272-8.367-3.425-10.772-5.97a2.95 2.95 0 0 0-1.937-.792z"/><path style="fill:#b97964" d="m133.712 235.286 4.904 1.179 8.302-2.098 1.341 3.666 1.032 5.139-6.603 1.129-5.425-3.27-6.921-.14z"/><path style="fill:#263238" d="m121.979 199.516 4.051 56.934 43.523.34s5.31-15.724-1.252-37.998l-6.41-21.486a5.317 5.317 0 0 0-3.819-3.651c-6.453-1.592-22.142-3.496-34.385 2.827a3.165 3.165 0 0 0-1.708 3.034z"/><path style="fill:#407bff" d="M125.051 256.898c-2.438 11.285-3.077 19.191-3.043 24.472.012 1.868.108 3.408.238 4.652.392 3.743.529 7.511.296 11.269l-.06.967c-.671 10.837-.787 21.91-.769 29.209v.154a44.655 44.655 0 0 1-2.225 14.067 65.986 65.986 0 0 0-.67 2.167c-6.149 21.091-5.623 54.755-5.623 54.755l11.932.672 32.837-144.446H127.49c-1.171-.001-2.178.858-2.439 2.062z"/><path style="opacity:.2" d="m142.891 278.782-4.087-.941-2.524-3.059s.256 22.867 6.885 45.147l6.461-28.421-6.735-12.726z"/><path style="fill:#407bff" d="m112.139 396.288.175 3.514 13.581.557.603-3.566z"/><path style="opacity:.3" d="m112.139 396.288.175 3.514 13.581.557.603-3.566z"/><path style="fill:#407bff" d="M137.038 254.834c-2.785 16.696-1.07 26.215.782 31.193.181.487.363.93.543 1.332 1.347 3.016 2.301 6.205 2.731 9.508l.062.469c1.721 12.952 5.018 26.542 6.998 34.068l.029.11c.871 3.306 1.127 6.76.659 10.155a51.656 51.656 0 0 0-.355 3.554c-1.315 19.44 5.076 54.877 5.076 54.877l11.679-1.076 5.105-142.505c.033-.92-.666-1.685-1.539-1.685h-31.77z"/><path style="fill:#407bff" d="m152.053 398.311.998 3.43 13.123-1.139.192-3.618z"/><path style="opacity:.3" d="m152.053 398.311.998 3.43 13.123-1.139.192-3.618z"/><g style="opacity:.7"><path style="fill:#fff" d="M137.274 257.258h22.048v3.06h-22.048zM134.359 257.258h-8.469l-.461 3.06h8.93zM162.298 257.258h6.718v3.06h-6.718z"/></g><path style="opacity:.4" d="m168.301 218.792-3.461-11.602-2.368-3.303-3.06-2.352-1.448 3.57s.893 11.223 11.765 19.244a82.669 82.669 0 0 0-1.428-5.557z"/><path style="fill:#b97964" d="m189.063 199.495 2.107-4.583-.374-7.129a3.54 3.54 0 0 1 .856-2.499l1.218-1.411a3.54 3.54 0 0 1 5.372.017l.698.818c.566.665.867 1.515.845 2.388l-.104 4.025a3.541 3.541 0 0 1-.918 2.288l-3.375 3.715-1.479 6.762-4.846-4.391z"/><path style="fill:#263238" d="m161.691 194.731 20.536 16.532 7.177-13.888 6.162 2.579s-4.388 24.658-10.004 25.053c-5.616.395-19.668-6.257-25.454-14.163-4.207-5.749-2.296-12.33-.94-15.493a1.629 1.629 0 0 1 2.523-.62z"/></svg>