<svg xmlns="http://www.w3.org/2000/svg" version="1.1" xmlns:xlink="http://www.w3.org/1999/xlink" xmlns:svgjs="http://svgjs.dev/svgjs" width="1000" height="1000" preserveAspectRatio="none" viewBox="0 0 1000 1000"><g mask="url(&quot;#SvgjsMask1030&quot;)" fill="none"><rect width="1000" height="1000" x="0" y="0" fill="#0e2a47"></rect><path d="M90.95,234.284C138.993,235.187,174.385,194.6,197.853,152.67C220.652,111.934,230.706,64.094,209.47,22.522C186.309,-22.817,141.842,-55.18,90.95,-56.6C37.675,-58.086,-16.246,-32.331,-39.608,15.572C-61.006,59.446,-34.235,106.866,-9.215,148.78C14.901,189.179,43.908,233.4,90.95,234.284" fill="rgba(28, 83, 142, 0.17)" class="triangle-float1"></path><path d="M245.887,508.505C348.631,516.809,461.244,489.247,513.353,400.309C565.869,310.676,536.818,197.55,478.409,111.641C427.183,36.297,336.992,7.79,245.887,6.914C152.846,6.019,51.421,26.176,5.489,107.093C-40.048,187.314,-3.286,283.247,44.108,362.385C89.838,438.745,157.17,501.335,245.887,508.505" fill="rgba(28, 83, 142, 0.17)" class="triangle-float1"></path><path d="M187.759,392.869C258.795,390.065,318.321,345.227,354.242,283.878C390.602,221.779,400.853,147.63,369.185,83.012C333.266,9.719,269.278,-51.761,187.759,-55.835C99.823,-60.23,13.754,-14.327,-28.056,63.158C-68.119,137.405,-49.363,227.396,-3.159,297.985C38.556,361.715,111.65,395.873,187.759,392.869" fill="rgba(28, 83, 142, 0.17)" class="triangle-float2"></path><path d="M940.44,313.961C1003.348,312.52,1064.604,284.775,1095.136,229.754C1124.885,176.145,1114.724,110.564,1082.123,58.64C1051.644,10.097,997.736,-15.036,940.44,-16.629C879.802,-18.315,817.837,-0.265,784.423,50.364C747.599,106.16,738.911,179.604,772.962,237.134C806.492,293.784,874.628,315.469,940.44,313.961" fill="rgba(28, 83, 142, 0.17)" class="triangle-float2"></path><path d="M1047.474,519.681C1146.031,525.727,1244.872,475.34,1290.29,387.664C1332.967,305.28,1298.275,209.721,1248.653,131.324C1203.166,59.459,1132.238,11.026,1047.474,4.042C946.917,-4.243,827.944,4.247,779.321,92.656C731.532,179.549,798.565,276.753,851.302,360.735C899.272,437.125,957.44,514.158,1047.474,519.681" fill="rgba(28, 83, 142, 0.17)" class="triangle-float1"></path><path d="M907.27,255.909C957.671,252.905,997.507,217.664,1022.145,173.593C1046.097,130.75,1053.051,79.747,1029.971,36.428C1005.506,-9.49,959.299,-42.034,907.27,-42.013C855.273,-41.992,811.886,-7.821,784.74,36.527C756.112,83.297,739.21,140.986,765.949,188.861C793.199,237.65,851.486,259.233,907.27,255.909" fill="rgba(28, 83, 142, 0.17)" class="triangle-float3"></path><path d="M32.739,928.491C63.986,926.555,83.827,898.372,98.731,870.84C112.706,845.023,121.592,815.3,108.137,789.208C93.646,761.106,64.351,743.497,32.739,742.868C0.012,742.217,-31.261,757.996,-48.039,786.102C-65.235,814.909,-65.674,850.82,-49.12,880C-32.348,909.565,-1.187,930.593,32.739,928.491" fill="rgba(28, 83, 142, 0.17)" class="triangle-float2"></path><path d="M247.871,1306.686C349.408,1313.137,460.825,1288.301,512.076,1200.41C563.592,1112.064,526.762,1004.943,475.387,916.515C424.321,828.618,349.521,746.495,247.871,745.647C145.11,744.79,59.565,820.708,13.683,912.662C-27.546,995.291,-11.129,1090.785,36.051,1170.166C82.05,1247.56,158.02,1300.977,247.871,1306.686" fill="rgba(28, 83, 142, 0.17)" class="triangle-float1"></path><path d="M120.776,1092.481C181.954,1092.749,241.612,1061.034,268.673,1006.165C293.411,956.005,266.415,901.266,239.17,852.422C210.877,801.699,178.697,745.305,120.776,741.015C57.224,736.308,-1.665,776.514,-32.464,832.303C-62.291,886.331,-56.215,951.703,-24.895,1004.88C5.925,1057.207,60.048,1092.215,120.776,1092.481" fill="rgba(28, 83, 142, 0.17)" class="triangle-float3"></path><path d="M1027.356,1253.944C1118.471,1259.817,1223.34,1245.911,1267.261,1165.865C1310.288,1087.447,1256.669,998.187,1209.33,922.293C1165.798,852.502,1109.594,782.926,1027.356,781.247C942.883,779.522,872.033,840.164,832.041,914.591C794.249,984.924,795.808,1068.846,835.636,1138.046C875.561,1207.415,947.484,1248.796,1027.356,1253.944" fill="rgba(28, 83, 142, 0.17)" class="triangle-float3"></path><path d="M1026.271,1312.855C1124.628,1315.275,1208.663,1245.051,1253.714,1157.585C1295.136,1077.166,1283.678,982.074,1236.356,904.979C1191.329,831.623,1112.225,791.58,1026.271,787.048C930.264,781.986,822.219,797.449,773.955,880.597C725.569,963.955,768.833,1063.611,817.421,1146.851C865.47,1229.168,930.986,1310.511,1026.271,1312.855" fill="rgba(28, 83, 142, 0.17)" class="triangle-float3"></path><path d="M923.573,1077.602C976.526,1073.627,1019.318,1040.148,1047.048,994.862C1076.363,946.987,1094.558,889.56,1069.469,839.341C1041.961,784.28,985.12,747.097,923.573,747.713C862.957,748.319,813.736,790.17,782.647,842.21C750.575,895.895,731.074,962.512,763.197,1016.167C794.714,1068.811,862.388,1082.194,923.573,1077.602" fill="rgba(28, 83, 142, 0.17)" class="triangle-float1"></path></g><defs><mask id="SvgjsMask1030"><rect width="1000" height="1000" fill="#ffffff"></rect></mask><style>
                @keyframes float1 {
                    0%{transform: translate(0, 0)}
                    50%{transform: translate(-10px, 0)}
                    100%{transform: translate(0, 0)}
                }

                .triangle-float1 {
                    animation: float1 5s infinite;
                }

                @keyframes float2 {
                    0%{transform: translate(0, 0)}
                    50%{transform: translate(-5px, -5px)}
                    100%{transform: translate(0, 0)}
                }

                .triangle-float2 {
                    animation: float2 4s infinite;
                }

                @keyframes float3 {
                    0%{transform: translate(0, 0)}
                    50%{transform: translate(0, -10px)}
                    100%{transform: translate(0, 0)}
                }

                .triangle-float3 {
                    animation: float3 6s infinite;
                }
            </style></defs></svg>